# xmcd CD database file
#
# Track frame offsets:
#	150
#	21228
#	38022
#	57404
#	76934
#	95868
#	117356
#	134396
#	152575
#	173762
#	192933
#
# Disc length: 2850 seconds
#
# Revision: 0
# Processed by: cddbd v1.5.2PL0 Copyright (c) Steve Scherf et al.
# Submitted via: CDex 1.74
#
DISCID=8d0b200b
DTITLE=Michael Lington - A Song For You
DYEAR=2006
DGENRE=Jazz
TTITLE0=It's Too Late
TTITLE1=She's Always a Woman
TTITLE2=Tell Me About it (feat Dave Koz)
TTITLE3=You've Got a Friend
TTITLE4=Sorry Seems to be the Hardest Word
TTITLE5=Fragile
TTITLE6=Nobody Doest it Better
TTITLE7=Still Crazy After All These Years
TTITLE8=A Song For You
TTITLE9=Both Sides Now
TTITLE10=All in Love is Fair
EXTD=YEAR: 2006
EXTT0=
EXTT1=
EXTT2=
EXTT3=
EXTT4=
EXTT5=
EXTT6=
EXTT7=
EXTT8=
EXTT9=
EXTT10=
PLAYORDER=
